<?xml version="1.0" standalone="no"?>
<!DOCTYPE svg PUBLIC "-//W3C//DTD SVG 20010904//EN"
 "http://www.w3.org/TR/2001/REC-SVG-20010904/DTD/svg10.dtd">
<svg version="1.0" xmlns="http://www.w3.org/2000/svg"
 width="200.000000pt" height="200.000000pt" viewBox="0 0 200.000000 200.000000"
 preserveAspectRatio="xMidYMid meet">
<metadata>
Created by potrace 1.14, written by Peter Selinger 2001-2017
</metadata>
<g transform="translate(0.000000,200.000000) scale(0.100000,-0.100000)"
fill="#000000" stroke="none">
<path d="M865 1990 c-464 -73 -806 -429 -857 -892 -55 -508 308 -990 812
-1079 92 -16 273 -16 360 0 383 71 685 353 786 736 23 87 27 119 27 245 0 123
-4 160 -26 245 -112 430 -489 733 -932 750 -60 2 -137 0 -170 -5z m-2 -481
c122 -102 134 -110 165 -104 l32 6 0 -209 0 -209 30 -1 30 -1 0 214 0 215 28
7 c15 4 103 7 195 7 150 1 169 -1 178 -16 6 -10 17 -18 24 -18 8 0 15 -9 15
-20 0 -11 7 -20 15 -20 13 0 15 -57 15 -455 l0 -455 -255 0 c-234 0 -256 -1
-262 -17 -25 -73 -121 -73 -146 0 -6 16 -28 17 -262 17 l-255 0 0 455 c0 398
2 455 15 455 8 0 15 9 15 20 0 11 7 20 15 20 7 0 18 7 23 15 6 12 35 17 125
22 l117 6 0 89 c0 48 2 88 5 88 3 0 65 -50 138 -111z"/>
</g>
</svg>
